<svg width="719" height="738" viewBox="0 0 719 738" fill="none" xmlns="http://www.w3.org/2000/svg">
	<g filter="url(#filter0_d_46_39062)">
		<circle cx="332.577" cy="375.429" r="170.161" fill="#1B1B1B" />
		<circle cx="332.577" cy="375.429" r="170.161" fill="url(#paint0_radial_46_39062)"
			fill-opacity="0.2" />
		<circle cx="332.577" cy="375.429" r="169.161" stroke="#2E2E2E" stroke-width="2" />
	</g>
	<mask id="mask0_46_39062" style="mask-type:alpha" maskUnits="userSpaceOnUse" x="162" y="205"
		width="341" height="341">
		<circle cx="332.577" cy="375.429" r="169.161" fill="#1B1B1B" />
		<circle cx="332.577" cy="375.429" r="169.161" fill="url(#paint1_radial_46_39062)"
			fill-opacity="0.2" />
		<circle cx="332.577" cy="375.429" r="169.161" stroke="#2E2E2E" stroke-width="2" />
	</mask>
	<g mask="url(#mask0_46_39062)">
		<path opacity="0.06" fill-rule="evenodd" clip-rule="evenodd"
			d="M472.262 417.929C478.978 373.027 444.792 348.89 398.046 332.789L413.211 271.965L376.186 262.739L361.423 321.962C351.69 319.534 341.693 317.247 331.758 314.979L346.628 255.365L309.626 246.14L294.453 306.944C286.398 305.11 278.486 303.297 270.811 301.387L270.854 301.196L219.795 288.446L209.946 327.991C209.946 327.991 237.415 334.288 236.837 334.676C251.83 338.418 254.541 348.343 254.091 356.21L236.817 425.503C237.849 425.765 239.188 426.144 240.666 426.738C240.477 426.691 240.285 426.643 240.092 426.595C239.927 426.554 239.76 426.512 239.592 426.47C238.678 426.241 237.728 426.003 236.752 425.77L212.54 522.839C210.708 527.394 206.057 534.23 195.574 531.634C195.945 532.172 168.664 524.919 168.664 524.919L150.281 567.301L198.464 579.312C203.74 580.635 208.954 581.995 214.115 583.34L214.126 583.343C217.729 584.282 221.307 585.215 224.861 586.124L209.54 647.645L246.523 656.871L261.696 596.002C271.799 598.745 281.604 601.275 291.202 603.66L276.08 664.241L313.107 673.467L328.427 612.061C391.563 624.01 439.036 619.192 459.019 562.086C475.12 516.108 458.217 489.589 425.001 472.295C449.194 466.715 467.417 450.804 472.275 417.934L472.264 417.926L472.262 417.929ZM387.671 536.552C377.173 578.735 311.145 561.296 280.935 553.317C278.218 552.599 275.79 551.958 273.719 551.443L294.051 469.938C296.575 470.568 299.659 471.261 303.154 472.045L303.155 472.045C334.403 479.058 398.427 493.426 387.673 536.552H387.671ZM309.421 434.216C334.607 440.938 389.551 455.601 399.12 417.263H399.124C408.894 378.051 355.498 366.229 329.42 360.456C326.486 359.806 323.898 359.233 321.784 358.706L303.351 432.627C305.091 433.061 307.133 433.606 309.421 434.216Z"
			fill="white" />
	</g>
	<path
		d="M300.894 402.641C299.326 402.641 297.966 402.401 296.814 401.921C295.678 401.425 294.702 400.713 293.886 399.785L295.806 396.665C296.702 397.593 297.574 398.249 298.422 398.633C299.27 399.017 300.158 399.209 301.086 399.209C301.518 399.209 301.91 399.153 302.262 399.041C302.614 398.929 302.886 398.769 303.078 398.561C303.27 398.337 303.366 398.065 303.366 397.745C303.366 397.505 303.302 397.289 303.174 397.097C303.062 396.905 302.902 396.737 302.694 396.593C302.486 396.449 302.238 396.321 301.95 396.209C301.662 396.081 301.358 395.977 301.038 395.897C300.718 395.801 300.39 395.721 300.054 395.657C298.806 395.385 297.774 395.017 296.958 394.553C296.158 394.089 295.558 393.513 295.158 392.825C294.758 392.121 294.558 391.297 294.558 390.353C294.558 389.601 294.726 388.913 295.062 388.289C295.414 387.649 295.878 387.105 296.454 386.657C297.046 386.193 297.726 385.841 298.494 385.601C299.262 385.345 300.062 385.217 300.894 385.217C302.254 385.217 303.47 385.425 304.542 385.841C305.614 386.257 306.574 386.905 307.422 387.785L305.694 390.617C305.054 389.961 304.334 389.473 303.534 389.153C302.734 388.833 301.894 388.673 301.014 388.673C300.534 388.673 300.118 388.737 299.766 388.865C299.43 388.977 299.166 389.145 298.974 389.369C298.782 389.577 298.686 389.833 298.686 390.137C298.686 390.409 298.766 390.641 298.926 390.833C299.086 391.025 299.302 391.201 299.574 391.361C299.846 391.505 300.158 391.633 300.51 391.745C300.862 391.841 301.23 391.921 301.614 391.985C302.494 392.161 303.286 392.393 303.99 392.681C304.71 392.969 305.326 393.321 305.838 393.737C306.366 394.153 306.766 394.649 307.038 395.225C307.326 395.785 307.47 396.441 307.47 397.193C307.47 398.361 307.182 399.353 306.606 400.169C306.046 400.969 305.27 401.585 304.278 402.017C303.302 402.433 302.174 402.641 300.894 402.641ZM299.454 404.585L299.718 393.425L301.662 394.217L301.926 404.585H299.454ZM302.262 394.241L300.318 393.449L300.054 383.489H302.526L302.262 394.241ZM315.193 402.569C313.929 402.569 312.777 402.313 311.737 401.801C310.713 401.289 309.865 400.553 309.193 399.593L311.377 397.193C312.033 397.913 312.641 398.409 313.201 398.681C313.761 398.937 314.385 399.065 315.073 399.065C315.585 399.065 316.041 398.961 316.441 398.753C316.841 398.545 317.153 398.257 317.377 397.889C317.617 397.505 317.737 397.081 317.737 396.617C317.737 396.137 317.617 395.713 317.377 395.345C317.153 394.961 316.841 394.657 316.441 394.433C316.057 394.209 315.609 394.097 315.097 394.097C314.729 394.097 314.385 394.129 314.065 394.193C313.745 394.257 313.401 394.369 313.033 394.529C312.681 394.673 312.257 394.889 311.761 395.177L310.033 392.873L311.065 385.457H320.713V388.889H313.009L314.065 387.545L313.273 392.873L311.833 392.393C312.137 392.121 312.505 391.881 312.937 391.673C313.385 391.465 313.865 391.297 314.377 391.169C314.889 391.025 315.401 390.953 315.913 390.953C316.969 390.953 317.913 391.201 318.745 391.697C319.593 392.177 320.265 392.849 320.761 393.713C321.257 394.577 321.505 395.569 321.505 396.689C321.505 397.793 321.225 398.793 320.665 399.689C320.105 400.569 319.353 401.273 318.409 401.801C317.465 402.313 316.393 402.569 315.193 402.569ZM330.81 402.641C329.306 402.641 328.018 402.297 326.946 401.609C325.89 400.921 325.082 399.937 324.522 398.657C323.962 397.361 323.682 395.809 323.682 394.001C323.682 392.193 323.962 390.649 324.522 389.369C325.082 388.073 325.89 387.081 326.946 386.393C328.018 385.705 329.306 385.361 330.81 385.361C332.314 385.361 333.602 385.705 334.674 386.393C335.746 387.081 336.562 388.073 337.122 389.369C337.682 390.649 337.962 392.193 337.962 394.001C337.962 395.809 337.682 397.361 337.122 398.657C336.562 399.937 335.746 400.921 334.674 401.609C333.602 402.297 332.314 402.641 330.81 402.641ZM330.81 399.185C331.85 399.185 332.65 398.737 333.21 397.841C333.786 396.945 334.074 395.665 334.074 394.001C334.074 392.289 333.786 390.977 333.21 390.065C332.65 389.137 331.85 388.673 330.81 388.673C329.77 388.673 328.962 389.137 328.386 390.065C327.826 390.977 327.546 392.289 327.546 394.001C327.546 395.665 327.826 396.945 328.386 397.841C328.962 398.737 329.77 399.185 330.81 399.185ZM347.005 402.641C345.501 402.641 344.213 402.297 343.141 401.609C342.085 400.921 341.277 399.937 340.717 398.657C340.157 397.361 339.877 395.809 339.877 394.001C339.877 392.193 340.157 390.649 340.717 389.369C341.277 388.073 342.085 387.081 343.141 386.393C344.213 385.705 345.501 385.361 347.005 385.361C348.509 385.361 349.797 385.705 350.869 386.393C351.941 387.081 352.757 388.073 353.317 389.369C353.877 390.649 354.157 392.193 354.157 394.001C354.157 395.809 353.877 397.361 353.317 398.657C352.757 399.937 351.941 400.921 350.869 401.609C349.797 402.297 348.509 402.641 347.005 402.641ZM347.005 399.185C348.045 399.185 348.845 398.737 349.405 397.841C349.981 396.945 350.269 395.665 350.269 394.001C350.269 392.289 349.981 390.977 349.405 390.065C348.845 389.137 348.045 388.673 347.005 388.673C345.965 388.673 345.157 389.137 344.581 390.065C344.021 390.977 343.741 392.289 343.741 394.001C343.741 395.665 344.021 396.945 344.581 397.841C345.157 398.737 345.965 399.185 347.005 399.185ZM357.224 402.401V385.601H364.64C365.792 385.601 366.768 385.769 367.568 386.105C368.368 386.425 368.968 386.897 369.368 387.521C369.784 388.129 369.992 388.865 369.992 389.729C369.992 390.689 369.752 391.497 369.272 392.153C368.808 392.809 368.128 393.249 367.232 393.473L367.184 393.017C367.936 393.177 368.584 393.457 369.128 393.857C369.688 394.257 370.12 394.753 370.424 395.345C370.728 395.921 370.88 396.577 370.88 397.313C370.88 398.161 370.736 398.905 370.448 399.545C370.16 400.169 369.744 400.697 369.2 401.129C368.656 401.561 368.016 401.881 367.28 402.089C366.56 402.297 365.76 402.401 364.88 402.401H357.224ZM361.064 398.993H364.736C365.184 398.993 365.56 398.921 365.864 398.777C366.184 398.633 366.432 398.425 366.608 398.153C366.784 397.865 366.872 397.521 366.872 397.121C366.872 396.753 366.776 396.441 366.584 396.185C366.408 395.929 366.152 395.737 365.816 395.609C365.48 395.465 365.08 395.393 364.616 395.393H361.064V398.993ZM361.064 392.345H364.064C364.48 392.345 364.832 392.281 365.12 392.153C365.424 392.009 365.648 391.817 365.792 391.577C365.952 391.321 366.032 391.017 366.032 390.665C366.032 390.153 365.856 389.753 365.504 389.465C365.152 389.161 364.624 389.009 363.92 389.009H361.064V392.345Z"
		fill="white" />
	<path
		d="M271.669 427.401V416.201H276.341C277.055 416.201 277.658 416.308 278.149 416.521C278.639 416.735 279.007 417.055 279.253 417.481C279.509 417.897 279.637 418.409 279.637 419.017C279.637 419.625 279.466 420.143 279.125 420.569C278.794 420.996 278.33 421.289 277.733 421.449V421.129C278.234 421.236 278.671 421.428 279.045 421.705C279.418 421.972 279.706 422.308 279.909 422.713C280.122 423.119 280.229 423.583 280.229 424.105C280.229 424.639 280.143 425.113 279.973 425.529C279.813 425.935 279.567 426.276 279.237 426.553C278.917 426.831 278.527 427.044 278.069 427.193C277.61 427.332 277.087 427.401 276.501 427.401H271.669ZM273.397 425.737H276.405C276.842 425.737 277.21 425.673 277.509 425.545C277.818 425.417 278.053 425.231 278.213 424.985C278.383 424.729 278.469 424.425 278.469 424.073C278.469 423.743 278.378 423.46 278.197 423.225C278.026 422.991 277.781 422.815 277.461 422.697C277.141 422.569 276.762 422.505 276.325 422.505H273.397V425.737ZM273.397 420.841H276.245C276.565 420.841 276.847 420.777 277.093 420.649C277.349 420.521 277.546 420.345 277.685 420.121C277.834 419.897 277.909 419.641 277.909 419.353C277.909 418.873 277.749 418.505 277.429 418.249C277.109 417.993 276.65 417.865 276.053 417.865H273.397V420.841ZM284.453 427.401V417.865H281.317V416.201H289.413V417.865H286.181V427.401H284.453ZM295.603 427.561C294.825 427.561 294.11 427.423 293.459 427.145C292.809 426.868 292.243 426.473 291.763 425.961C291.283 425.439 290.91 424.825 290.643 424.121C290.387 423.417 290.259 422.644 290.259 421.801C290.259 421.001 290.398 420.26 290.675 419.577C290.963 418.884 291.358 418.276 291.859 417.753C292.361 417.231 292.942 416.825 293.603 416.537C294.265 416.249 294.979 416.105 295.747 416.105C296.291 416.105 296.819 416.191 297.331 416.361C297.854 416.521 298.323 416.751 298.739 417.049C299.166 417.337 299.513 417.668 299.779 418.041L298.627 419.241C298.318 418.932 298.003 418.676 297.683 418.473C297.374 418.26 297.054 418.1 296.723 417.993C296.403 417.887 296.078 417.833 295.747 417.833C295.225 417.833 294.734 417.935 294.275 418.137C293.827 418.329 293.433 418.601 293.091 418.953C292.761 419.305 292.499 419.727 292.307 420.217C292.115 420.697 292.019 421.225 292.019 421.801C292.019 422.409 292.11 422.964 292.291 423.465C292.483 423.956 292.75 424.377 293.091 424.729C293.433 425.081 293.838 425.353 294.307 425.545C294.787 425.727 295.315 425.817 295.891 425.817C296.243 425.817 296.59 425.769 296.931 425.673C297.273 425.577 297.593 425.439 297.891 425.257C298.19 425.076 298.462 424.863 298.707 424.617L299.571 426.025C299.326 426.313 298.99 426.575 298.563 426.809C298.147 427.044 297.678 427.231 297.155 427.369C296.643 427.497 296.126 427.561 295.603 427.561ZM306.403 427.401V416.201H308.099L312.179 422.841L311.363 422.825L315.491 416.201H317.091V427.401H315.363V422.809C315.363 421.849 315.384 420.985 315.427 420.217C315.48 419.449 315.566 418.687 315.683 417.929L315.907 418.521L312.243 424.185H311.187L307.635 418.585L307.811 417.929C307.928 418.644 308.008 419.38 308.051 420.137C308.104 420.884 308.131 421.775 308.131 422.809V427.401H306.403ZM323.047 427.561C322.354 427.561 321.719 427.369 321.143 426.985C320.578 426.601 320.124 426.079 319.783 425.417C319.442 424.756 319.271 424.009 319.271 423.177C319.271 422.335 319.442 421.588 319.783 420.937C320.135 420.276 320.604 419.759 321.191 419.385C321.788 419.012 322.455 418.825 323.191 418.825C323.628 418.825 324.028 418.889 324.391 419.017C324.754 419.145 325.068 419.327 325.335 419.561C325.612 419.785 325.836 420.047 326.007 420.345C326.188 420.644 326.3 420.964 326.343 421.305L325.975 421.177V419.001H327.639V427.401H325.975V425.401L326.359 425.289C326.295 425.577 326.162 425.86 325.959 426.137C325.767 426.404 325.516 426.644 325.207 426.857C324.908 427.071 324.572 427.241 324.199 427.369C323.836 427.497 323.452 427.561 323.047 427.561ZM323.479 426.041C323.98 426.041 324.423 425.919 324.807 425.673C325.191 425.428 325.49 425.092 325.703 424.665C325.927 424.228 326.039 423.732 326.039 423.177C326.039 422.633 325.927 422.148 325.703 421.721C325.49 421.295 325.191 420.959 324.807 420.713C324.423 420.468 323.98 420.345 323.479 420.345C322.988 420.345 322.551 420.468 322.167 420.713C321.794 420.959 321.495 421.295 321.271 421.721C321.058 422.148 320.951 422.633 320.951 423.177C320.951 423.732 321.058 424.228 321.271 424.665C321.495 425.092 321.794 425.428 322.167 425.673C322.551 425.919 322.988 426.041 323.479 426.041ZM329.94 427.401V419.001H331.604V421.641L331.444 421.001C331.561 420.596 331.759 420.228 332.036 419.897C332.324 419.567 332.649 419.305 333.012 419.113C333.385 418.921 333.769 418.825 334.164 418.825C334.345 418.825 334.516 418.841 334.676 418.873C334.847 418.905 334.98 418.943 335.076 418.985L334.644 420.777C334.516 420.724 334.372 420.681 334.212 420.649C334.063 420.607 333.913 420.585 333.764 420.585C333.476 420.585 333.199 420.644 332.932 420.761C332.676 420.868 332.447 421.023 332.244 421.225C332.052 421.417 331.897 421.647 331.78 421.913C331.663 422.169 331.604 422.452 331.604 422.761V427.401H329.94ZM337.897 424.777L337.817 422.985L341.833 419.001H344.057L337.897 424.777ZM336.393 427.401V415.561H338.041V427.401H336.393ZM342.057 427.401L338.889 423.705L340.057 422.633L344.169 427.401H342.057ZM349.048 427.561C348.184 427.561 347.416 427.38 346.744 427.017C346.082 426.644 345.56 426.137 345.176 425.497C344.802 424.857 344.616 424.121 344.616 423.289C344.616 422.628 344.722 422.025 344.936 421.481C345.149 420.937 345.442 420.468 345.816 420.073C346.2 419.668 346.653 419.359 347.176 419.145C347.709 418.921 348.285 418.809 348.904 418.809C349.448 418.809 349.954 418.916 350.424 419.129C350.893 419.332 351.298 419.615 351.64 419.977C351.992 420.34 352.258 420.772 352.44 421.273C352.632 421.764 352.722 422.303 352.712 422.889L352.696 423.593H345.832L345.464 422.281H351.272L351.032 422.553V422.169C351 421.817 350.882 421.503 350.68 421.225C350.477 420.948 350.221 420.729 349.912 420.569C349.602 420.409 349.266 420.329 348.904 420.329C348.328 420.329 347.842 420.441 347.448 420.665C347.053 420.879 346.754 421.199 346.552 421.625C346.349 422.041 346.248 422.559 346.248 423.177C346.248 423.764 346.37 424.276 346.616 424.713C346.861 425.14 347.208 425.471 347.656 425.705C348.104 425.94 348.621 426.057 349.208 426.057C349.624 426.057 350.008 425.988 350.36 425.849C350.722 425.711 351.112 425.46 351.528 425.097L352.36 426.265C352.104 426.521 351.789 426.745 351.416 426.937C351.053 427.129 350.664 427.284 350.248 427.401C349.842 427.508 349.442 427.561 349.048 427.561ZM355.543 427.401V416.857H357.191V427.401H355.543ZM353.799 420.601V419.001H359.143V420.601H353.799ZM370.088 427.561C369.309 427.561 368.594 427.423 367.944 427.145C367.293 426.868 366.728 426.473 366.248 425.961C365.768 425.439 365.394 424.825 365.128 424.121C364.872 423.417 364.744 422.644 364.744 421.801C364.744 421.001 364.882 420.26 365.16 419.577C365.448 418.884 365.842 418.276 366.344 417.753C366.845 417.231 367.426 416.825 368.088 416.537C368.749 416.249 369.464 416.105 370.232 416.105C370.776 416.105 371.304 416.191 371.816 416.361C372.338 416.521 372.808 416.751 373.224 417.049C373.65 417.337 373.997 417.668 374.264 418.041L373.112 419.241C372.802 418.932 372.488 418.676 372.168 418.473C371.858 418.26 371.538 418.1 371.208 417.993C370.888 417.887 370.562 417.833 370.232 417.833C369.709 417.833 369.218 417.935 368.76 418.137C368.312 418.329 367.917 418.601 367.576 418.953C367.245 419.305 366.984 419.727 366.792 420.217C366.6 420.697 366.504 421.225 366.504 421.801C366.504 422.409 366.594 422.964 366.776 423.465C366.968 423.956 367.234 424.377 367.576 424.729C367.917 425.081 368.322 425.353 368.792 425.545C369.272 425.727 369.8 425.817 370.376 425.817C370.728 425.817 371.074 425.769 371.416 425.673C371.757 425.577 372.077 425.439 372.376 425.257C372.674 425.076 372.946 424.863 373.192 424.617L374.056 426.025C373.81 426.313 373.474 426.575 373.048 426.809C372.632 427.044 372.162 427.231 371.64 427.369C371.128 427.497 370.61 427.561 370.088 427.561ZM379.219 427.561C378.526 427.561 377.891 427.369 377.315 426.985C376.75 426.601 376.296 426.079 375.955 425.417C375.614 424.756 375.443 424.009 375.443 423.177C375.443 422.335 375.614 421.588 375.955 420.937C376.307 420.276 376.776 419.759 377.363 419.385C377.96 419.012 378.627 418.825 379.363 418.825C379.8 418.825 380.2 418.889 380.563 419.017C380.926 419.145 381.24 419.327 381.507 419.561C381.784 419.785 382.008 420.047 382.179 420.345C382.36 420.644 382.472 420.964 382.515 421.305L382.147 421.177V419.001H383.811V427.401H382.147V425.401L382.531 425.289C382.467 425.577 382.334 425.86 382.131 426.137C381.939 426.404 381.688 426.644 381.379 426.857C381.08 427.071 380.744 427.241 380.371 427.369C380.008 427.497 379.624 427.561 379.219 427.561ZM379.651 426.041C380.152 426.041 380.595 425.919 380.979 425.673C381.363 425.428 381.662 425.092 381.875 424.665C382.099 424.228 382.211 423.732 382.211 423.177C382.211 422.633 382.099 422.148 381.875 421.721C381.662 421.295 381.363 420.959 380.979 420.713C380.595 420.468 380.152 420.345 379.651 420.345C379.16 420.345 378.723 420.468 378.339 420.713C377.966 420.959 377.667 421.295 377.443 421.721C377.23 422.148 377.123 422.633 377.123 423.177C377.123 423.732 377.23 424.228 377.443 424.665C377.667 425.092 377.966 425.428 378.339 425.673C378.723 425.919 379.16 426.041 379.651 426.041ZM386.112 430.921V419.001H387.776V420.921L387.52 420.777C387.584 420.457 387.765 420.153 388.064 419.865C388.363 419.567 388.725 419.327 389.152 419.145C389.589 418.953 390.037 418.857 390.496 418.857C391.253 418.857 391.925 419.044 392.512 419.417C393.099 419.791 393.563 420.303 393.904 420.953C394.245 421.604 394.416 422.351 394.416 423.193C394.416 424.025 394.245 424.772 393.904 425.433C393.573 426.084 393.115 426.601 392.528 426.985C391.941 427.359 391.28 427.545 390.544 427.545C390.053 427.545 389.579 427.449 389.12 427.257C388.661 427.055 388.272 426.799 387.952 426.489C387.632 426.18 387.435 425.86 387.36 425.529L387.776 425.305V430.921H386.112ZM390.272 426.025C390.763 426.025 391.2 425.903 391.584 425.657C391.968 425.412 392.272 425.076 392.496 424.649C392.72 424.223 392.832 423.737 392.832 423.193C392.832 422.649 392.72 422.169 392.496 421.753C392.283 421.327 391.984 420.991 391.6 420.745C391.216 420.5 390.773 420.377 390.272 420.377C389.771 420.377 389.328 420.5 388.944 420.745C388.56 420.98 388.256 421.311 388.032 421.737C387.808 422.164 387.696 422.649 387.696 423.193C387.696 423.737 387.808 424.223 388.032 424.649C388.256 425.076 388.56 425.412 388.944 425.657C389.328 425.903 389.771 426.025 390.272 426.025Z"
		fill="white" />
	<path
		d="M351.962 346.287C349.292 356.998 338.443 363.517 327.731 360.846C317.023 358.176 310.504 347.326 313.176 336.616C315.845 325.904 326.694 319.385 337.403 322.055C348.114 324.726 354.632 335.576 351.962 346.288L351.962 346.287H351.962Z"
		fill="#F7931A" />
	<path fill-rule="evenodd" clip-rule="evenodd"
		d="M341.385 338.602C341.783 335.941 339.757 334.511 336.987 333.557L337.886 329.953L335.692 329.406L334.817 332.915C334.24 332.771 333.648 332.636 333.059 332.502L333.94 328.969L331.748 328.422L330.849 332.025C330.371 331.917 329.903 331.809 329.448 331.696L329.45 331.685L326.425 330.929L325.841 333.273C325.841 333.273 327.469 333.646 327.435 333.669C328.323 333.89 328.484 334.479 328.457 334.945L327.433 339.051C327.495 339.066 327.574 339.089 327.662 339.124L327.598 339.108L327.598 339.108C327.544 339.094 327.487 339.08 327.43 339.067L325.995 344.819C325.886 345.088 325.611 345.494 324.99 345.34C325.012 345.372 323.395 344.942 323.395 344.942L322.306 347.453L325.161 348.165C325.473 348.243 325.782 348.324 326.088 348.404L326.088 348.404L326.088 348.404C326.302 348.459 326.514 348.515 326.725 348.569L325.817 352.214L328.009 352.761L328.908 349.154C329.506 349.316 330.087 349.466 330.656 349.608L329.76 353.198L331.954 353.744L332.862 350.106C336.603 350.814 339.416 350.528 340.6 347.144C341.554 344.42 340.553 342.848 338.585 341.823C340.018 341.493 341.098 340.55 341.386 338.602L341.385 338.602L341.385 338.602ZM336.372 345.631C335.75 348.131 331.838 347.097 330.048 346.625L330.047 346.625C329.886 346.582 329.743 346.544 329.62 346.514L330.825 341.684C330.974 341.721 331.157 341.762 331.364 341.809C333.216 342.224 337.01 343.076 336.372 345.631H336.372ZM331.736 339.567C333.228 339.965 336.484 340.834 337.051 338.563H337.051C337.63 336.239 334.466 335.538 332.921 335.196C332.747 335.158 332.593 335.124 332.468 335.093L331.376 339.473C331.479 339.499 331.6 339.531 331.736 339.567Z"
		fill="white" />
	<g filter="url(#filter1_d_46_39062)">
		<circle cx="539.049" cy="307.429" r="17.0161" fill="#1B1B1B" />
		<circle cx="539.049" cy="307.429" r="17.0161" fill="url(#paint2_radial_46_39062)"
			fill-opacity="0.2" />
		<circle cx="539.049" cy="307.429" r="16.0161" stroke="#2E2E2E" stroke-width="2" />
	</g>
	<circle cx="475.352" cy="377.772" r="2.24613" fill="#F6F6F6" />
	<path
		d="M652.337 236.642C650.769 236.642 649.409 236.402 648.257 235.922C647.121 235.426 646.145 234.714 645.329 233.786L647.249 230.666C648.145 231.594 649.017 232.25 649.865 232.634C650.713 233.018 651.601 233.21 652.529 233.21C652.961 233.21 653.353 233.154 653.705 233.042C654.057 232.93 654.329 232.77 654.521 232.562C654.713 232.338 654.809 232.066 654.809 231.746C654.809 231.506 654.745 231.29 654.617 231.098C654.505 230.906 654.345 230.738 654.137 230.594C653.929 230.45 653.681 230.322 653.393 230.21C653.105 230.082 652.801 229.978 652.481 229.898C652.161 229.802 651.833 229.722 651.497 229.658C650.249 229.386 649.217 229.018 648.401 228.554C647.601 228.09 647.001 227.514 646.601 226.826C646.201 226.122 646.001 225.298 646.001 224.354C646.001 223.602 646.169 222.914 646.505 222.29C646.857 221.65 647.321 221.106 647.897 220.658C648.489 220.194 649.169 219.842 649.937 219.602C650.705 219.346 651.505 219.218 652.337 219.218C653.697 219.218 654.913 219.426 655.985 219.842C657.057 220.258 658.017 220.906 658.865 221.786L657.137 224.618C656.497 223.962 655.777 223.474 654.977 223.154C654.177 222.834 653.337 222.674 652.457 222.674C651.977 222.674 651.561 222.738 651.209 222.866C650.873 222.978 650.609 223.146 650.417 223.37C650.225 223.578 650.129 223.834 650.129 224.138C650.129 224.41 650.209 224.642 650.369 224.834C650.529 225.026 650.745 225.202 651.017 225.362C651.289 225.506 651.601 225.634 651.953 225.746C652.305 225.842 652.673 225.922 653.057 225.986C653.937 226.162 654.729 226.394 655.433 226.682C656.153 226.97 656.769 227.322 657.281 227.738C657.809 228.154 658.209 228.65 658.481 229.226C658.769 229.786 658.913 230.442 658.913 231.194C658.913 232.362 658.625 233.354 658.049 234.17C657.489 234.97 656.713 235.586 655.721 236.018C654.745 236.434 653.617 236.642 652.337 236.642ZM650.897 238.586L651.161 227.426L653.105 228.218L653.369 238.586H650.897ZM653.705 228.242L651.761 227.45L651.497 217.49H653.969L653.705 228.242ZM666.636 236.57C665.372 236.57 664.22 236.314 663.18 235.802C662.156 235.29 661.308 234.554 660.636 233.594L662.82 231.194C663.476 231.914 664.084 232.41 664.644 232.682C665.204 232.938 665.828 233.066 666.516 233.066C667.028 233.066 667.484 232.962 667.884 232.754C668.284 232.546 668.596 232.258 668.82 231.89C669.06 231.506 669.18 231.082 669.18 230.618C669.18 230.138 669.06 229.714 668.82 229.346C668.596 228.962 668.284 228.658 667.884 228.434C667.5 228.21 667.052 228.098 666.54 228.098C666.172 228.098 665.828 228.13 665.508 228.194C665.188 228.258 664.844 228.37 664.476 228.53C664.124 228.674 663.7 228.89 663.204 229.178L661.476 226.874L662.508 219.458H672.156V222.89H664.452L665.508 221.546L664.716 226.874L663.276 226.394C663.58 226.122 663.948 225.882 664.38 225.674C664.828 225.466 665.308 225.298 665.82 225.17C666.332 225.026 666.844 224.954 667.356 224.954C668.412 224.954 669.356 225.202 670.188 225.698C671.036 226.178 671.708 226.85 672.204 227.714C672.7 228.578 672.948 229.57 672.948 230.69C672.948 231.794 672.668 232.794 672.108 233.69C671.548 234.57 670.796 235.274 669.852 235.802C668.908 236.314 667.836 236.57 666.636 236.57ZM682.253 236.642C680.749 236.642 679.461 236.298 678.389 235.61C677.333 234.922 676.525 233.938 675.965 232.658C675.405 231.362 675.125 229.81 675.125 228.002C675.125 226.194 675.405 224.65 675.965 223.37C676.525 222.074 677.333 221.082 678.389 220.394C679.461 219.706 680.749 219.362 682.253 219.362C683.757 219.362 685.045 219.706 686.117 220.394C687.189 221.082 688.005 222.074 688.565 223.37C689.125 224.65 689.405 226.194 689.405 228.002C689.405 229.81 689.125 231.362 688.565 232.658C688.005 233.938 687.189 234.922 686.117 235.61C685.045 236.298 683.757 236.642 682.253 236.642ZM682.253 233.186C683.293 233.186 684.093 232.738 684.653 231.842C685.229 230.946 685.517 229.666 685.517 228.002C685.517 226.29 685.229 224.978 684.653 224.066C684.093 223.138 683.293 222.674 682.253 222.674C681.213 222.674 680.405 223.138 679.829 224.066C679.269 224.978 678.989 226.29 678.989 228.002C678.989 229.666 679.269 230.946 679.829 231.842C680.405 232.738 681.213 233.186 682.253 233.186ZM692.472 236.402V219.602H699.888C701.04 219.602 702.016 219.77 702.816 220.106C703.616 220.426 704.216 220.898 704.616 221.522C705.032 222.13 705.24 222.866 705.24 223.73C705.24 224.69 705 225.498 704.52 226.154C704.056 226.81 703.376 227.25 702.48 227.474L702.432 227.018C703.184 227.178 703.832 227.458 704.376 227.858C704.936 228.258 705.368 228.754 705.672 229.346C705.976 229.922 706.128 230.578 706.128 231.314C706.128 232.162 705.984 232.906 705.696 233.546C705.408 234.17 704.992 234.698 704.448 235.13C703.904 235.562 703.264 235.882 702.528 236.09C701.808 236.298 701.008 236.402 700.128 236.402H692.472ZM696.312 232.994H699.984C700.432 232.994 700.808 232.922 701.112 232.778C701.432 232.634 701.68 232.426 701.856 232.154C702.032 231.866 702.12 231.522 702.12 231.122C702.12 230.754 702.024 230.442 701.832 230.186C701.656 229.93 701.4 229.738 701.064 229.61C700.728 229.466 700.328 229.394 699.864 229.394H696.312V232.994ZM696.312 226.346H699.312C699.728 226.346 700.08 226.282 700.368 226.154C700.672 226.01 700.896 225.818 701.04 225.578C701.2 225.322 701.28 225.018 701.28 224.666C701.28 224.154 701.104 223.754 700.752 223.466C700.4 223.162 699.872 223.01 699.168 223.01H696.312V226.346Z"
		fill="white" />
	<path
		d="M638.842 261.402V250.202H643.226C644.026 250.202 644.746 250.336 645.386 250.602C646.037 250.869 646.592 251.253 647.05 251.754C647.509 252.256 647.861 252.848 648.106 253.53C648.352 254.213 648.474 254.97 648.474 255.802C648.474 256.634 648.352 257.397 648.106 258.09C647.861 258.773 647.509 259.365 647.05 259.866C646.602 260.357 646.053 260.736 645.402 261.002C644.752 261.269 644.026 261.402 643.226 261.402H638.842ZM640.57 259.914L640.522 259.738H643.146C643.712 259.738 644.213 259.648 644.65 259.466C645.098 259.285 645.472 259.029 645.77 258.698C646.08 258.357 646.314 257.941 646.474 257.45C646.634 256.96 646.714 256.41 646.714 255.802C646.714 255.194 646.634 254.65 646.474 254.17C646.314 253.68 646.08 253.264 645.77 252.922C645.461 252.581 645.088 252.32 644.65 252.138C644.213 251.957 643.712 251.866 643.146 251.866H640.474L640.57 251.722V259.914ZM654.315 261.562C653.451 261.562 652.683 261.381 652.011 261.018C651.35 260.645 650.827 260.138 650.443 259.498C650.07 258.858 649.883 258.122 649.883 257.29C649.883 256.629 649.99 256.026 650.203 255.482C650.416 254.938 650.71 254.469 651.083 254.074C651.467 253.669 651.92 253.36 652.443 253.146C652.976 252.922 653.552 252.81 654.171 252.81C654.715 252.81 655.222 252.917 655.691 253.13C656.16 253.333 656.566 253.616 656.907 253.978C657.259 254.341 657.526 254.773 657.707 255.274C657.899 255.765 657.99 256.304 657.979 256.89L657.963 257.594H651.099L650.731 256.282H656.539L656.299 256.554V256.17C656.267 255.818 656.15 255.504 655.947 255.226C655.744 254.949 655.488 254.73 655.179 254.57C654.87 254.41 654.534 254.33 654.171 254.33C653.595 254.33 653.11 254.442 652.715 254.666C652.32 254.88 652.022 255.2 651.819 255.626C651.616 256.042 651.515 256.56 651.515 257.178C651.515 257.765 651.638 258.277 651.883 258.714C652.128 259.141 652.475 259.472 652.923 259.706C653.371 259.941 653.888 260.058 654.475 260.058C654.891 260.058 655.275 259.989 655.627 259.85C655.99 259.712 656.379 259.461 656.795 259.098L657.627 260.266C657.371 260.522 657.056 260.746 656.683 260.938C656.32 261.13 655.931 261.285 655.515 261.402C655.11 261.509 654.71 261.562 654.315 261.562ZM660.186 261.402V250.202H661.914V261.402H660.186ZM660.954 256.634V254.97H666.73V256.634H660.954ZM660.954 251.866V250.202H667.45V251.866H660.954ZM669.667 261.402V253.002H671.315V261.402H669.667ZM670.467 251.146C670.115 251.146 669.843 251.056 669.651 250.874C669.459 250.693 669.363 250.437 669.363 250.106C669.363 249.797 669.459 249.546 669.651 249.354C669.854 249.162 670.126 249.066 670.467 249.066C670.819 249.066 671.091 249.157 671.283 249.338C671.475 249.52 671.571 249.776 671.571 250.106C671.571 250.416 671.47 250.666 671.267 250.858C671.075 251.05 670.808 251.146 670.467 251.146ZM680.877 261.402V251.866H677.741V250.202H685.837V251.866H682.605V261.402H680.877ZM691.42 261.402L686.94 250.202H688.908L691.58 257.002C691.708 257.333 691.82 257.632 691.916 257.898C692.022 258.165 692.113 258.41 692.188 258.634C692.262 258.848 692.332 259.05 692.396 259.242C692.46 259.434 692.524 259.626 692.588 259.818L692.172 259.834C692.246 259.578 692.326 259.312 692.412 259.034C692.497 258.757 692.593 258.453 692.7 258.122C692.817 257.792 692.956 257.418 693.116 257.002L695.596 250.202H697.612L693.1 261.402H691.42ZM699.561 261.402V250.202H701.289V259.738H706.537V261.402H699.561Z"
		fill="white" />
	<path
		d="M712.189 254.538V250.154L712.285 250.442L711.485 250.954L710.925 249.898L712.493 248.97H713.389V254.538H712.797C712.69 254.538 712.589 254.538 712.493 254.538C712.397 254.538 712.296 254.538 712.189 254.538Z"
		fill="white" />
	<path
		d="M589.604 437.387C588.036 437.387 586.676 437.147 585.524 436.667C584.388 436.171 583.412 435.459 582.596 434.531L584.516 431.411C585.412 432.339 586.284 432.995 587.132 433.379C587.98 433.763 588.868 433.955 589.796 433.955C590.228 433.955 590.62 433.899 590.972 433.787C591.324 433.675 591.596 433.515 591.788 433.307C591.98 433.083 592.076 432.811 592.076 432.491C592.076 432.251 592.012 432.035 591.884 431.843C591.772 431.651 591.612 431.483 591.404 431.339C591.196 431.195 590.948 431.067 590.66 430.955C590.372 430.827 590.068 430.723 589.748 430.643C589.428 430.547 589.1 430.467 588.764 430.403C587.516 430.131 586.484 429.763 585.668 429.299C584.868 428.835 584.268 428.259 583.868 427.571C583.468 426.867 583.268 426.043 583.268 425.099C583.268 424.347 583.436 423.659 583.772 423.035C584.124 422.395 584.588 421.851 585.164 421.403C585.756 420.939 586.436 420.587 587.204 420.347C587.972 420.091 588.772 419.963 589.604 419.963C590.964 419.963 592.18 420.171 593.252 420.587C594.324 421.003 595.284 421.651 596.132 422.531L594.404 425.363C593.764 424.707 593.044 424.219 592.244 423.899C591.444 423.579 590.604 423.419 589.724 423.419C589.244 423.419 588.828 423.483 588.476 423.611C588.14 423.723 587.876 423.891 587.684 424.115C587.492 424.323 587.396 424.579 587.396 424.883C587.396 425.155 587.476 425.387 587.636 425.579C587.796 425.771 588.012 425.947 588.284 426.107C588.556 426.251 588.868 426.379 589.22 426.491C589.572 426.587 589.94 426.667 590.324 426.731C591.204 426.907 591.996 427.139 592.7 427.427C593.42 427.715 594.036 428.067 594.548 428.483C595.076 428.899 595.476 429.395 595.748 429.971C596.036 430.531 596.18 431.187 596.18 431.939C596.18 433.107 595.892 434.099 595.316 434.915C594.756 435.715 593.98 436.331 592.988 436.763C592.012 437.179 590.884 437.387 589.604 437.387ZM588.164 439.331L588.428 428.171L590.372 428.963L590.636 439.331H588.164ZM590.972 428.987L589.028 428.195L588.764 418.235H591.236L590.972 428.987ZM604.191 437.147C603.327 437.147 602.511 436.995 601.743 436.691C600.991 436.371 600.335 435.939 599.775 435.395C599.215 434.835 598.767 434.187 598.431 433.451C598.111 432.715 597.951 431.923 597.951 431.075C597.951 430.483 598.015 429.915 598.143 429.371C598.271 428.811 598.447 428.251 598.671 427.691C598.911 427.115 599.191 426.531 599.511 425.939C599.847 425.331 600.215 424.691 600.615 424.019L602.967 420.083H606.735L606.831 420.323L603.567 425.459C603.151 426.131 602.791 426.763 602.487 427.355C602.183 427.931 601.911 428.507 601.671 429.083C601.431 429.659 601.191 430.267 600.951 430.907L600.183 429.251C600.343 428.691 600.599 428.179 600.951 427.715C601.303 427.235 601.711 426.827 602.175 426.491C602.655 426.139 603.151 425.875 603.663 425.699C604.175 425.507 604.679 425.411 605.175 425.411C606.119 425.411 606.983 425.667 607.767 426.179C608.567 426.675 609.207 427.339 609.687 428.171C610.167 429.003 610.407 429.915 610.407 430.907C610.407 432.091 610.135 433.155 609.591 434.099C609.063 435.043 608.327 435.787 607.383 436.331C606.455 436.875 605.391 437.147 604.191 437.147ZM604.239 433.787C604.751 433.787 605.199 433.675 605.583 433.451C605.983 433.227 606.295 432.915 606.519 432.515C606.743 432.099 606.855 431.627 606.855 431.099C606.855 430.651 606.735 430.235 606.495 429.851C606.271 429.451 605.959 429.131 605.559 428.891C605.175 428.635 604.743 428.507 604.263 428.507C603.751 428.507 603.287 428.627 602.871 428.867C602.471 429.091 602.159 429.403 601.935 429.803C601.711 430.187 601.599 430.619 601.599 431.099C601.599 431.611 601.711 432.075 601.935 432.491C602.159 432.891 602.471 433.211 602.871 433.451C603.271 433.675 603.727 433.787 604.239 433.787ZM614.105 437.411C613.449 437.411 612.937 437.227 612.569 436.859C612.217 436.491 612.041 435.963 612.041 435.275C612.041 434.635 612.233 434.115 612.617 433.715C613.001 433.315 613.497 433.115 614.105 433.115C614.761 433.115 615.273 433.307 615.641 433.691C616.009 434.059 616.193 434.587 616.193 435.275C616.193 435.899 616.001 436.411 615.617 436.811C615.233 437.211 614.729 437.411 614.105 437.411ZM624.253 437.147C623.389 437.147 622.573 436.995 621.805 436.691C621.053 436.371 620.397 435.939 619.837 435.395C619.277 434.835 618.829 434.187 618.493 433.451C618.173 432.715 618.013 431.923 618.013 431.075C618.013 430.483 618.077 429.915 618.205 429.371C618.333 428.811 618.509 428.251 618.733 427.691C618.973 427.115 619.253 426.531 619.573 425.939C619.909 425.331 620.277 424.691 620.677 424.019L623.029 420.083H626.797L626.893 420.323L623.629 425.459C623.213 426.131 622.853 426.763 622.549 427.355C622.245 427.931 621.973 428.507 621.733 429.083C621.493 429.659 621.253 430.267 621.013 430.907L620.245 429.251C620.405 428.691 620.661 428.179 621.013 427.715C621.365 427.235 621.773 426.827 622.237 426.491C622.717 426.139 623.213 425.875 623.725 425.699C624.237 425.507 624.741 425.411 625.237 425.411C626.181 425.411 627.045 425.667 627.829 426.179C628.629 426.675 629.269 427.339 629.749 428.171C630.229 429.003 630.469 429.915 630.469 430.907C630.469 432.091 630.197 433.155 629.653 434.099C629.125 435.043 628.389 435.787 627.445 436.331C626.517 436.875 625.453 437.147 624.253 437.147ZM624.301 433.787C624.813 433.787 625.261 433.675 625.645 433.451C626.045 433.227 626.357 432.915 626.581 432.515C626.805 432.099 626.917 431.627 626.917 431.099C626.917 430.651 626.797 430.235 626.557 429.851C626.333 429.451 626.021 429.131 625.621 428.891C625.237 428.635 624.805 428.507 624.325 428.507C623.813 428.507 623.349 428.627 622.933 428.867C622.533 429.091 622.221 429.403 621.997 429.803C621.773 430.187 621.661 430.619 621.661 431.099C621.661 431.611 621.773 432.075 621.997 432.491C622.221 432.891 622.533 433.211 622.933 433.451C623.333 433.675 623.789 433.787 624.301 433.787ZM633.208 437.147V420.347H640.624C641.776 420.347 642.752 420.515 643.552 420.851C644.352 421.171 644.952 421.643 645.352 422.267C645.768 422.875 645.976 423.611 645.976 424.475C645.976 425.435 645.736 426.243 645.256 426.899C644.792 427.555 644.112 427.995 643.216 428.219L643.168 427.763C643.92 427.923 644.568 428.203 645.112 428.603C645.672 429.003 646.104 429.499 646.408 430.091C646.712 430.667 646.864 431.323 646.864 432.059C646.864 432.907 646.72 433.651 646.432 434.291C646.144 434.915 645.728 435.443 645.184 435.875C644.64 436.307 644 436.627 643.264 436.835C642.544 437.043 641.744 437.147 640.864 437.147H633.208ZM637.048 433.739H640.72C641.168 433.739 641.544 433.667 641.848 433.523C642.168 433.379 642.416 433.171 642.592 432.899C642.768 432.611 642.856 432.267 642.856 431.867C642.856 431.499 642.76 431.187 642.568 430.931C642.392 430.675 642.136 430.483 641.8 430.355C641.464 430.211 641.064 430.139 640.6 430.139H637.048V433.739ZM637.048 427.091H640.048C640.464 427.091 640.816 427.027 641.104 426.899C641.408 426.755 641.632 426.563 641.776 426.323C641.936 426.067 642.016 425.763 642.016 425.411C642.016 424.899 641.84 424.499 641.488 424.211C641.136 423.907 640.608 423.755 639.904 423.755H637.048V427.091Z"
		fill="white" />
	<path
		d="M569.859 462.147V450.947H574.531C575.246 450.947 575.848 451.054 576.339 451.267C576.83 451.48 577.198 451.8 577.443 452.227C577.699 452.643 577.827 453.155 577.827 453.763C577.827 454.371 577.656 454.888 577.315 455.315C576.984 455.742 576.52 456.035 575.923 456.195V455.875C576.424 455.982 576.862 456.174 577.235 456.451C577.608 456.718 577.896 457.054 578.099 457.459C578.312 457.864 578.419 458.328 578.419 458.851C578.419 459.384 578.334 459.859 578.163 460.275C578.003 460.68 577.758 461.022 577.427 461.299C577.107 461.576 576.718 461.79 576.259 461.939C575.8 462.078 575.278 462.147 574.691 462.147H569.859ZM571.587 460.483H574.595C575.032 460.483 575.4 460.419 575.699 460.291C576.008 460.163 576.243 459.976 576.403 459.731C576.574 459.475 576.659 459.171 576.659 458.819C576.659 458.488 576.568 458.206 576.387 457.971C576.216 457.736 575.971 457.56 575.651 457.443C575.331 457.315 574.952 457.251 574.515 457.251H571.587V460.483ZM571.587 455.587H574.435C574.755 455.587 575.038 455.523 575.283 455.395C575.539 455.267 575.736 455.091 575.875 454.867C576.024 454.643 576.099 454.387 576.099 454.099C576.099 453.619 575.939 453.251 575.619 452.995C575.299 452.739 574.84 452.611 574.243 452.611H571.587V455.587ZM582.643 462.147V452.611H579.507V450.947H587.603V452.611H584.371V462.147H582.643ZM593.794 462.307C593.015 462.307 592.3 462.168 591.65 461.891C590.999 461.614 590.434 461.219 589.954 460.707C589.474 460.184 589.1 459.571 588.834 458.867C588.578 458.163 588.45 457.39 588.45 456.547C588.45 455.747 588.588 455.006 588.866 454.323C589.154 453.63 589.548 453.022 590.05 452.499C590.551 451.976 591.132 451.571 591.794 451.283C592.455 450.995 593.17 450.851 593.938 450.851C594.482 450.851 595.01 450.936 595.522 451.107C596.044 451.267 596.514 451.496 596.93 451.795C597.356 452.083 597.703 452.414 597.97 452.787L596.818 453.987C596.508 453.678 596.194 453.422 595.874 453.219C595.564 453.006 595.244 452.846 594.914 452.739C594.594 452.632 594.268 452.579 593.938 452.579C593.415 452.579 592.924 452.68 592.466 452.883C592.018 453.075 591.623 453.347 591.282 453.699C590.951 454.051 590.69 454.472 590.498 454.963C590.306 455.443 590.21 455.971 590.21 456.547C590.21 457.155 590.3 457.71 590.482 458.211C590.674 458.702 590.94 459.123 591.282 459.475C591.623 459.827 592.028 460.099 592.498 460.291C592.978 460.472 593.506 460.563 594.082 460.563C594.434 460.563 594.78 460.515 595.122 460.419C595.463 460.323 595.783 460.184 596.082 460.003C596.38 459.822 596.652 459.608 596.898 459.363L597.762 460.771C597.516 461.059 597.18 461.32 596.754 461.555C596.338 461.79 595.868 461.976 595.346 462.115C594.834 462.243 594.316 462.307 593.794 462.307ZM604.449 462.147V453.747H606.097V462.147H604.449ZM605.249 451.891C604.897 451.891 604.625 451.8 604.433 451.619C604.241 451.438 604.145 451.182 604.145 450.851C604.145 450.542 604.241 450.291 604.433 450.099C604.636 449.907 604.908 449.811 605.249 449.811C605.601 449.811 605.873 449.902 606.065 450.083C606.257 450.264 606.353 450.52 606.353 450.851C606.353 451.16 606.252 451.411 606.049 451.603C605.857 451.795 605.591 451.891 605.249 451.891ZM608.631 462.147V453.747H610.279V455.475L609.991 455.667C610.097 455.294 610.305 454.952 610.615 454.643C610.924 454.323 611.292 454.067 611.719 453.875C612.145 453.672 612.583 453.571 613.031 453.571C613.671 453.571 614.204 453.699 614.631 453.955C615.057 454.2 615.377 454.579 615.591 455.091C615.804 455.603 615.911 456.248 615.911 457.027V462.147H614.263V457.139C614.263 456.659 614.199 456.264 614.071 455.955C613.943 455.635 613.745 455.406 613.479 455.267C613.212 455.118 612.881 455.054 612.487 455.075C612.167 455.075 611.873 455.128 611.607 455.235C611.34 455.331 611.105 455.47 610.903 455.651C610.711 455.832 610.556 456.046 610.439 456.291C610.332 456.526 610.279 456.782 610.279 457.059V462.147H609.463C609.324 462.147 609.185 462.147 609.047 462.147C608.908 462.147 608.769 462.147 608.631 462.147ZM623.047 462.147V450.947H627.431C628.231 450.947 628.951 451.08 629.591 451.347C630.241 451.614 630.796 451.998 631.255 452.499C631.713 453 632.065 453.592 632.311 454.275C632.556 454.958 632.679 455.715 632.679 456.547C632.679 457.379 632.556 458.142 632.311 458.835C632.065 459.518 631.713 460.11 631.255 460.611C630.807 461.102 630.257 461.48 629.607 461.747C628.956 462.014 628.231 462.147 627.431 462.147H623.047ZM624.775 460.659L624.727 460.483H627.351C627.916 460.483 628.417 460.392 628.855 460.211C629.303 460.03 629.676 459.774 629.975 459.443C630.284 459.102 630.519 458.686 630.679 458.195C630.839 457.704 630.919 457.155 630.919 456.547C630.919 455.939 630.839 455.395 630.679 454.915C630.519 454.424 630.284 454.008 629.975 453.667C629.665 453.326 629.292 453.064 628.855 452.883C628.417 452.702 627.916 452.611 627.351 452.611H624.679L624.775 452.467V460.659ZM638.519 462.307C637.655 462.307 636.887 462.126 636.215 461.763C635.554 461.39 635.031 460.883 634.647 460.243C634.274 459.603 634.087 458.867 634.087 458.035C634.087 457.374 634.194 456.771 634.407 456.227C634.621 455.683 634.914 455.214 635.287 454.819C635.671 454.414 636.125 454.104 636.647 453.891C637.181 453.667 637.757 453.555 638.375 453.555C638.919 453.555 639.426 453.662 639.895 453.875C640.365 454.078 640.77 454.36 641.111 454.723C641.463 455.086 641.73 455.518 641.911 456.019C642.103 456.51 642.194 457.048 642.183 457.635L642.167 458.339H635.303L634.935 457.027H640.743L640.503 457.299V456.915C640.471 456.563 640.354 456.248 640.151 455.971C639.949 455.694 639.693 455.475 639.383 455.315C639.074 455.155 638.738 455.075 638.375 455.075C637.799 455.075 637.314 455.187 636.919 455.411C636.525 455.624 636.226 455.944 636.023 456.371C635.821 456.787 635.719 457.304 635.719 457.923C635.719 458.51 635.842 459.022 636.087 459.459C636.333 459.886 636.679 460.216 637.127 460.451C637.575 460.686 638.093 460.803 638.679 460.803C639.095 460.803 639.479 460.734 639.831 460.595C640.194 460.456 640.583 460.206 640.999 459.843L641.831 461.011C641.575 461.267 641.261 461.491 640.887 461.683C640.525 461.875 640.135 462.03 639.719 462.147C639.314 462.254 638.914 462.307 638.519 462.307ZM644.886 462.147V452.803C644.886 452.323 644.993 451.896 645.206 451.523C645.42 451.15 645.713 450.856 646.086 450.643C646.46 450.43 646.892 450.323 647.382 450.323C647.724 450.323 648.044 450.387 648.342 450.515C648.641 450.643 648.881 450.814 649.062 451.027L648.502 452.291C648.364 452.163 648.209 452.062 648.038 451.987C647.878 451.902 647.724 451.859 647.574 451.859C647.35 451.859 647.158 451.896 646.998 451.971C646.849 452.035 646.737 452.142 646.662 452.291C646.588 452.43 646.55 452.6 646.55 452.803V462.147H645.718C645.58 462.147 645.441 462.147 645.302 462.147C645.164 462.147 645.025 462.147 644.886 462.147ZM643.542 455.411V453.891H648.534V455.411H643.542ZM650.534 462.147V453.747H652.182V462.147H650.534ZM651.334 451.891C650.982 451.891 650.71 451.8 650.518 451.619C650.326 451.438 650.23 451.182 650.23 450.851C650.23 450.542 650.326 450.291 650.518 450.099C650.721 449.907 650.993 449.811 651.334 449.811C651.686 449.811 651.958 449.902 652.15 450.083C652.342 450.264 652.438 450.52 652.438 450.851C652.438 451.16 652.337 451.411 652.134 451.603C651.942 451.795 651.676 451.891 651.334 451.891Z"
		fill="white" />
	<path
		d="M657.198 455.459L657.054 454.323L658.638 452.739C658.734 452.654 658.852 452.542 658.99 452.403C659.129 452.264 659.252 452.11 659.358 451.939C659.465 451.758 659.518 451.576 659.518 451.395C659.518 451.224 659.47 451.091 659.374 450.995C659.278 450.888 659.14 450.835 658.958 450.835C658.777 450.835 658.574 450.904 658.35 451.043C658.137 451.171 657.918 451.39 657.694 451.699L656.83 451.059C656.99 450.782 657.188 450.542 657.422 450.339C657.657 450.126 657.913 449.966 658.19 449.859C658.468 449.742 658.761 449.683 659.07 449.683C659.422 449.683 659.726 449.752 659.982 449.891C660.249 450.03 660.457 450.222 660.606 450.467C660.756 450.702 660.83 450.974 660.83 451.283C660.83 451.582 660.75 451.87 660.59 452.147C660.43 452.414 660.244 452.664 660.03 452.899C659.817 453.123 659.62 453.32 659.438 453.491L658.366 454.531L658.43 454.387H660.894V455.459H657.198Z"
		fill="white" />
	<path
		d="M557.424 307.413H584.813C599.162 307.413 606.337 307.413 612.116 303.863C617.895 300.314 621.139 293.914 627.626 281.115L631.256 273.954"
		stroke="#A3A3A3" stroke-width="2" stroke-linecap="square" stroke-linejoin="round" />
	<circle cx="557.424" cy="307.413" r="4" transform="rotate(-90 557.424 307.413)" fill="#5E5E5E"
		stroke="#A3A3A3" stroke-width="2" stroke-linecap="round" stroke-linejoin="round" />
	<circle cx="631.424" cy="274.056" r="4" transform="rotate(-90 631.424 274.056)" fill="#5E5E5E"
		stroke="#A3A3A3" stroke-width="2" stroke-linecap="round" stroke-linejoin="round" />
	<path
		d="M604.416 400.928V400.928C598.674 392.159 595.804 387.775 591.633 385.035C590.488 384.283 589.28 383.631 588.024 383.085C583.448 381.096 578.207 381.096 567.726 381.096L485.957 381.096"
		stroke="#A3A3A3" stroke-width="2" stroke-linecap="square" stroke-linejoin="round" />
	<circle cx="604.416" cy="400.928" r="4" transform="rotate(180 604.416 400.928)" fill="#5E5E5E"
		stroke="#A3A3A3" stroke-width="2" stroke-linecap="round" stroke-linejoin="round" />
	<circle cx="486.059" cy="380.928" r="4" transform="rotate(180 486.059 380.928)" fill="#5E5E5E"
		stroke="#A3A3A3" stroke-width="2" stroke-linecap="round" stroke-linejoin="round" />
	<g filter="url(#filter2_d_46_39062)">
		<circle cx="453.969" cy="200.349" r="68.0645" fill="#1B1B1B" />
		<circle cx="453.969" cy="200.349" r="68.0645" fill="url(#paint3_radial_46_39062)"
			fill-opacity="0.2" />
		<circle cx="453.969" cy="200.349" r="67.0645" stroke="#2E2E2E" stroke-width="2" />
	</g>
	<mask id="mask1_46_39062" style="mask-type:alpha" maskUnits="userSpaceOnUse" x="385" y="132"
		width="138" height="137">
		<circle cx="453.969" cy="200.349" r="68.0645" fill="#1B1B1B" />
		<circle cx="453.969" cy="200.349" r="68.0645" fill="url(#paint4_radial_46_39062)"
			fill-opacity="0.2" />
	</mask>
	<g mask="url(#mask1_46_39062)">
		<path opacity="0.1" fill-rule="evenodd" clip-rule="evenodd"
			d="M388.177 157.869L431.634 85.7627V85.7641L431.635 85.7627L475.091 157.869L475.091 157.869L431.635 183.557V183.556L431.635 183.557L431.634 183.556V183.557L388.177 157.869ZM431.634 227.348L388.177 166.11L431.634 191.784L475.117 166.11L431.634 227.348V227.349L431.634 227.349L431.634 227.349L431.634 227.348Z"
			fill="white" />
	</g>
	<ellipse cx="453.969" cy="199.837" rx="20.512" ry="20" fill="white" />
	<path d="M453.964 182.837L453.74 183.579V205.112L453.964 205.33L464.215 199.422L453.964 182.837Z"
		fill="#343434" />
	<path d="M453.964 182.837L443.713 199.422L453.964 205.33V194.879V182.837Z" fill="#8C8C8C" />
	<path
		d="M453.964 207.223L453.838 207.373V215.044L453.964 215.403L464.222 201.318L453.964 207.223Z"
		fill="#3C3C3B" />
	<path d="M453.964 215.403V207.223L443.713 201.318L453.964 215.403Z" fill="#8C8C8C" />
	<path d="M453.964 205.331L464.215 199.422L453.964 194.879V205.331Z" fill="#141414" />
	<path d="M443.713 199.422L453.964 205.331V194.879L443.713 199.422Z" fill="#393939" />
	<path
		d="M479.924 141.498V141.498C484.023 132.258 486.073 127.638 489.456 124.38C491.653 122.264 494.232 120.587 497.057 119.437C501.408 117.666 506.462 117.666 516.57 117.666L576.383 117.666"
		stroke="#A3A3A3" stroke-width="2" stroke-linecap="square" stroke-linejoin="round" />
	<circle cx="4" cy="4" r="4" transform="matrix(1 0 0 -1 475.924 145.498)" fill="#5E5E5E"
		stroke="#A3A3A3" stroke-width="2" stroke-linecap="round" stroke-linejoin="round" />
	<circle cx="4" cy="4" r="4" transform="matrix(1 0 0 -1 572.281 121.498)" fill="#5E5E5E"
		stroke="#A3A3A3" stroke-width="2" stroke-linecap="round" stroke-linejoin="round" />
	<path
		d="M613.815 122.239C612.247 122.239 610.887 121.999 609.735 121.519C608.599 121.023 607.623 120.311 606.807 119.383L608.727 116.263C609.623 117.191 610.495 117.847 611.343 118.231C612.191 118.615 613.079 118.807 614.007 118.807C614.439 118.807 614.831 118.751 615.183 118.639C615.535 118.527 615.807 118.367 615.999 118.159C616.191 117.935 616.287 117.663 616.287 117.343C616.287 117.103 616.223 116.887 616.095 116.695C615.983 116.503 615.823 116.335 615.615 116.191C615.407 116.047 615.159 115.919 614.871 115.807C614.583 115.679 614.279 115.575 613.959 115.495C613.639 115.399 613.311 115.319 612.975 115.255C611.727 114.983 610.695 114.615 609.879 114.151C609.079 113.687 608.479 113.111 608.079 112.423C607.679 111.719 607.479 110.895 607.479 109.951C607.479 109.199 607.647 108.511 607.983 107.887C608.335 107.247 608.799 106.703 609.375 106.255C609.967 105.791 610.647 105.439 611.415 105.199C612.183 104.943 612.983 104.815 613.815 104.815C615.175 104.815 616.391 105.023 617.463 105.439C618.535 105.855 619.495 106.503 620.343 107.383L618.615 110.215C617.975 109.559 617.255 109.071 616.455 108.751C615.655 108.431 614.815 108.271 613.935 108.271C613.455 108.271 613.039 108.335 612.687 108.463C612.351 108.575 612.087 108.743 611.895 108.967C611.703 109.175 611.607 109.431 611.607 109.735C611.607 110.007 611.687 110.239 611.847 110.431C612.007 110.623 612.223 110.799 612.495 110.959C612.767 111.103 613.079 111.231 613.431 111.343C613.783 111.439 614.151 111.519 614.535 111.583C615.415 111.759 616.207 111.991 616.911 112.279C617.631 112.567 618.247 112.919 618.759 113.335C619.287 113.751 619.687 114.247 619.959 114.823C620.247 115.383 620.391 116.039 620.391 116.791C620.391 117.959 620.103 118.951 619.527 119.767C618.967 120.567 618.191 121.183 617.199 121.615C616.223 122.031 615.095 122.239 613.815 122.239ZM612.375 124.183L612.639 113.023L614.583 113.815L614.847 124.183H612.375ZM615.183 113.839L613.239 113.047L612.975 103.087H615.447L615.183 113.839ZM622.762 121.999L621.97 120.031L626.866 114.679C627.138 114.375 627.434 114.031 627.754 113.647C628.074 113.263 628.386 112.871 628.69 112.471C628.994 112.055 629.234 111.655 629.41 111.271C629.602 110.887 629.698 110.535 629.698 110.215C629.698 109.895 629.626 109.615 629.482 109.375C629.338 109.135 629.13 108.951 628.858 108.823C628.586 108.679 628.242 108.607 627.826 108.607C627.458 108.607 627.106 108.703 626.77 108.895C626.434 109.071 626.114 109.351 625.81 109.735C625.522 110.119 625.25 110.591 624.994 111.151L621.97 109.519C622.306 108.591 622.778 107.775 623.386 107.071C624.01 106.351 624.738 105.799 625.57 105.415C626.402 105.015 627.29 104.815 628.234 104.815C629.226 104.831 630.122 105.047 630.922 105.463C631.722 105.863 632.354 106.431 632.818 107.167C633.298 107.887 633.538 108.735 633.538 109.711C633.538 110.047 633.498 110.399 633.418 110.767C633.338 111.135 633.218 111.519 633.058 111.919C632.898 112.303 632.682 112.719 632.41 113.167C632.154 113.599 631.842 114.055 631.474 114.535C631.106 115.015 630.674 115.527 630.178 116.071L626.362 120.223L625.882 118.399H634.282V121.999H622.762ZM642.582 122.239C641.078 122.239 639.79 121.895 638.718 121.207C637.662 120.519 636.854 119.535 636.294 118.255C635.734 116.959 635.454 115.407 635.454 113.599C635.454 111.791 635.734 110.247 636.294 108.967C636.854 107.671 637.662 106.679 638.718 105.991C639.79 105.303 641.078 104.959 642.582 104.959C644.086 104.959 645.374 105.303 646.446 105.991C647.518 106.679 648.334 107.671 648.894 108.967C649.454 110.247 649.734 111.791 649.734 113.599C649.734 115.407 649.454 116.959 648.894 118.255C648.334 119.535 647.518 120.519 646.446 121.207C645.374 121.895 644.086 122.239 642.582 122.239ZM642.582 118.783C643.622 118.783 644.422 118.335 644.982 117.439C645.558 116.543 645.846 115.263 645.846 113.599C645.846 111.887 645.558 110.575 644.982 109.663C644.422 108.735 643.622 108.271 642.582 108.271C641.542 108.271 640.734 108.735 640.158 109.663C639.598 110.575 639.318 111.887 639.318 113.599C639.318 115.263 639.598 116.543 640.158 117.439C640.734 118.335 641.542 118.783 642.582 118.783ZM658.777 122.239C657.273 122.239 655.985 121.895 654.913 121.207C653.857 120.519 653.049 119.535 652.489 118.255C651.929 116.959 651.649 115.407 651.649 113.599C651.649 111.791 651.929 110.247 652.489 108.967C653.049 107.671 653.857 106.679 654.913 105.991C655.985 105.303 657.273 104.959 658.777 104.959C660.281 104.959 661.569 105.303 662.641 105.991C663.713 106.679 664.529 107.671 665.089 108.967C665.649 110.247 665.929 111.791 665.929 113.599C665.929 115.407 665.649 116.959 665.089 118.255C664.529 119.535 663.713 120.519 662.641 121.207C661.569 121.895 660.281 122.239 658.777 122.239ZM658.777 118.783C659.817 118.783 660.617 118.335 661.177 117.439C661.753 116.543 662.041 115.263 662.041 113.599C662.041 111.887 661.753 110.575 661.177 109.663C660.617 108.735 659.817 108.271 658.777 108.271C657.737 108.271 656.929 108.735 656.353 109.663C655.793 110.575 655.513 111.887 655.513 113.599C655.513 115.263 655.793 116.543 656.353 117.439C656.929 118.335 657.737 118.783 658.777 118.783ZM668.997 121.999V105.199H676.413C677.565 105.199 678.541 105.367 679.341 105.703C680.141 106.023 680.741 106.495 681.141 107.119C681.557 107.727 681.765 108.463 681.765 109.327C681.765 110.287 681.525 111.095 681.045 111.751C680.581 112.407 679.901 112.847 679.005 113.071L678.957 112.615C679.709 112.775 680.357 113.055 680.901 113.455C681.461 113.855 681.893 114.351 682.197 114.943C682.501 115.519 682.653 116.175 682.653 116.911C682.653 117.759 682.509 118.503 682.221 119.143C681.933 119.767 681.517 120.295 680.973 120.727C680.429 121.159 679.789 121.479 679.053 121.687C678.333 121.895 677.533 121.999 676.653 121.999H668.997ZM672.837 118.591H676.509C676.957 118.591 677.333 118.519 677.637 118.375C677.957 118.231 678.205 118.023 678.381 117.751C678.557 117.463 678.645 117.119 678.645 116.719C678.645 116.351 678.549 116.039 678.357 115.783C678.181 115.527 677.925 115.335 677.589 115.207C677.253 115.063 676.853 114.991 676.389 114.991H672.837V118.591ZM672.837 111.943H675.837C676.253 111.943 676.605 111.879 676.893 111.751C677.197 111.607 677.421 111.415 677.565 111.175C677.725 110.919 677.805 110.615 677.805 110.263C677.805 109.751 677.629 109.351 677.277 109.063C676.925 108.759 676.397 108.607 675.693 108.607H672.837V111.943Z"
		fill="white" />
	<path
		d="M583.531 146.999V135.799H590.587V137.463H585.259V145.335H590.587V146.999H583.531ZM584.315 142.087V140.423H589.707V142.087H584.315ZM595.487 146.999V137.463H592.351V135.799H600.447V137.463H597.215V146.999H595.487ZM609.89 146.999V135.799H611.618V146.999H609.89ZM602.578 146.999V135.799H604.306V146.999H602.578ZM603.33 142.247V140.583H610.658V142.247H603.33ZM619.234 146.999V135.799H620.93L625.01 142.439L624.194 142.423L628.322 135.799H629.922V146.999H628.194V142.407C628.194 141.447 628.215 140.583 628.258 139.815C628.311 139.047 628.397 138.284 628.514 137.527L628.738 138.119L625.074 143.783H624.018L620.466 138.183L620.642 137.527C620.759 138.242 620.839 138.978 620.882 139.735C620.935 140.482 620.962 141.372 620.962 142.407V146.999H619.234ZM635.878 147.159C635.185 147.159 634.55 146.967 633.974 146.583C633.409 146.199 632.955 145.676 632.614 145.015C632.273 144.354 632.102 143.607 632.102 142.775C632.102 141.932 632.273 141.186 632.614 140.535C632.966 139.874 633.435 139.356 634.022 138.983C634.619 138.61 635.286 138.423 636.022 138.423C636.459 138.423 636.859 138.487 637.222 138.615C637.585 138.743 637.899 138.924 638.166 139.159C638.443 139.383 638.667 139.644 638.838 139.943C639.019 140.242 639.131 140.562 639.174 140.903L638.806 140.775V138.599H640.47V146.999H638.806V144.999L639.19 144.887C639.126 145.175 638.993 145.458 638.79 145.735C638.598 146.002 638.347 146.242 638.038 146.455C637.739 146.668 637.403 146.839 637.03 146.967C636.667 147.095 636.283 147.159 635.878 147.159ZM636.31 145.639C636.811 145.639 637.254 145.516 637.638 145.271C638.022 145.026 638.321 144.69 638.534 144.263C638.758 143.826 638.87 143.33 638.87 142.775C638.87 142.231 638.758 141.746 638.534 141.319C638.321 140.892 638.022 140.556 637.638 140.311C637.254 140.066 636.811 139.943 636.31 139.943C635.819 139.943 635.382 140.066 634.998 140.311C634.625 140.556 634.326 140.892 634.102 141.319C633.889 141.746 633.782 142.231 633.782 142.775C633.782 143.33 633.889 143.826 634.102 144.263C634.326 144.69 634.625 145.026 634.998 145.271C635.382 145.516 635.819 145.639 636.31 145.639ZM642.771 146.999V138.599H644.435V141.239L644.275 140.599C644.392 140.194 644.59 139.826 644.867 139.495C645.155 139.164 645.48 138.903 645.843 138.711C646.216 138.519 646.6 138.423 646.995 138.423C647.176 138.423 647.347 138.439 647.507 138.471C647.678 138.503 647.811 138.54 647.907 138.583L647.475 140.375C647.347 140.322 647.203 140.279 647.043 140.247C646.894 140.204 646.744 140.183 646.595 140.183C646.307 140.183 646.03 140.242 645.763 140.359C645.507 140.466 645.278 140.62 645.075 140.823C644.883 141.015 644.728 141.244 644.611 141.511C644.494 141.767 644.435 142.05 644.435 142.359V146.999H642.771ZM650.728 144.375L650.648 142.583L654.664 138.599H656.888L650.728 144.375ZM649.224 146.999V135.159H650.872V146.999H649.224ZM654.888 146.999L651.72 143.303L652.888 142.231L657 146.999H654.888ZM661.879 147.159C661.015 147.159 660.247 146.978 659.575 146.615C658.913 146.242 658.391 145.735 658.007 145.095C657.633 144.455 657.447 143.719 657.447 142.887C657.447 142.226 657.553 141.623 657.767 141.079C657.98 140.535 658.273 140.066 658.647 139.671C659.031 139.266 659.484 138.956 660.007 138.743C660.54 138.519 661.116 138.407 661.735 138.407C662.279 138.407 662.785 138.514 663.255 138.727C663.724 138.93 664.129 139.212 664.471 139.575C664.823 139.938 665.089 140.37 665.271 140.871C665.463 141.362 665.553 141.9 665.543 142.487L665.527 143.191H658.663L658.295 141.879H664.103L663.863 142.151V141.767C663.831 141.415 663.713 141.1 663.511 140.823C663.308 140.546 663.052 140.327 662.743 140.167C662.433 140.007 662.097 139.927 661.735 139.927C661.159 139.927 660.673 140.039 660.279 140.263C659.884 140.476 659.585 140.796 659.383 141.223C659.18 141.639 659.079 142.156 659.079 142.775C659.079 143.362 659.201 143.874 659.447 144.311C659.692 144.738 660.039 145.068 660.487 145.303C660.935 145.538 661.452 145.655 662.039 145.655C662.455 145.655 662.839 145.586 663.191 145.447C663.553 145.308 663.943 145.058 664.359 144.695L665.191 145.863C664.935 146.119 664.62 146.343 664.247 146.535C663.884 146.727 663.495 146.882 663.079 146.999C662.673 147.106 662.273 147.159 661.879 147.159ZM668.374 146.999V136.455H670.022V146.999H668.374ZM666.63 140.199V138.599H671.974V140.199H666.63ZM682.919 147.159C682.14 147.159 681.425 147.02 680.775 146.743C680.124 146.466 679.559 146.071 679.079 145.559C678.599 145.036 678.225 144.423 677.959 143.719C677.703 143.015 677.575 142.242 677.575 141.399C677.575 140.599 677.713 139.858 677.991 139.175C678.279 138.482 678.673 137.874 679.175 137.351C679.676 136.828 680.257 136.423 680.919 136.135C681.58 135.847 682.295 135.703 683.063 135.703C683.607 135.703 684.135 135.788 684.647 135.959C685.169 136.119 685.639 136.348 686.055 136.647C686.481 136.935 686.828 137.266 687.095 137.639L685.943 138.839C685.633 138.53 685.319 138.274 684.999 138.071C684.689 137.858 684.369 137.698 684.039 137.591C683.719 137.484 683.393 137.431 683.063 137.431C682.54 137.431 682.049 137.532 681.591 137.735C681.143 137.927 680.748 138.199 680.407 138.551C680.076 138.903 679.815 139.324 679.623 139.815C679.431 140.295 679.335 140.823 679.335 141.399C679.335 142.007 679.425 142.562 679.607 143.063C679.799 143.554 680.065 143.975 680.407 144.327C680.748 144.679 681.153 144.951 681.623 145.143C682.103 145.324 682.631 145.415 683.207 145.415C683.559 145.415 683.905 145.367 684.247 145.271C684.588 145.175 684.908 145.036 685.207 144.855C685.505 144.674 685.777 144.46 686.023 144.215L686.887 145.623C686.641 145.911 686.305 146.172 685.879 146.407C685.463 146.642 684.993 146.828 684.471 146.967C683.959 147.095 683.441 147.159 682.919 147.159ZM692.05 147.159C691.357 147.159 690.722 146.967 690.146 146.583C689.581 146.199 689.127 145.676 688.786 145.015C688.445 144.354 688.274 143.607 688.274 142.775C688.274 141.932 688.445 141.186 688.786 140.535C689.138 139.874 689.607 139.356 690.194 138.983C690.791 138.61 691.458 138.423 692.194 138.423C692.631 138.423 693.031 138.487 693.394 138.615C693.757 138.743 694.071 138.924 694.338 139.159C694.615 139.383 694.839 139.644 695.01 139.943C695.191 140.242 695.303 140.562 695.346 140.903L694.978 140.775V138.599H696.642V146.999H694.978V144.999L695.362 144.887C695.298 145.175 695.165 145.458 694.962 145.735C694.77 146.002 694.519 146.242 694.21 146.455C693.911 146.668 693.575 146.839 693.202 146.967C692.839 147.095 692.455 147.159 692.05 147.159ZM692.482 145.639C692.983 145.639 693.426 145.516 693.81 145.271C694.194 145.026 694.493 144.69 694.706 144.263C694.93 143.826 695.042 143.33 695.042 142.775C695.042 142.231 694.93 141.746 694.706 141.319C694.493 140.892 694.194 140.556 693.81 140.311C693.426 140.066 692.983 139.943 692.482 139.943C691.991 139.943 691.554 140.066 691.17 140.311C690.797 140.556 690.498 140.892 690.274 141.319C690.061 141.746 689.954 142.231 689.954 142.775C689.954 143.33 690.061 143.826 690.274 144.263C690.498 144.69 690.797 145.026 691.17 145.271C691.554 145.516 691.991 145.639 692.482 145.639ZM698.943 150.519V138.599H700.607V140.519L700.351 140.375C700.415 140.055 700.596 139.751 700.895 139.463C701.194 139.164 701.556 138.924 701.983 138.743C702.42 138.551 702.868 138.455 703.327 138.455C704.084 138.455 704.756 138.642 705.343 139.015C705.93 139.388 706.394 139.9 706.735 140.551C707.076 141.202 707.247 141.948 707.247 142.791C707.247 143.623 707.076 144.37 706.735 145.031C706.404 145.682 705.946 146.199 705.359 146.583C704.772 146.956 704.111 147.143 703.375 147.143C702.884 147.143 702.41 147.047 701.951 146.855C701.492 146.652 701.103 146.396 700.783 146.087C700.463 145.778 700.266 145.458 700.191 145.127L700.607 144.903V150.519H698.943ZM703.103 145.623C703.594 145.623 704.031 145.5 704.415 145.255C704.799 145.01 705.103 144.674 705.327 144.247C705.551 143.82 705.663 143.335 705.663 142.791C705.663 142.247 705.551 141.767 705.327 141.351C705.114 140.924 704.815 140.588 704.431 140.343C704.047 140.098 703.604 139.975 703.103 139.975C702.602 139.975 702.159 140.098 701.775 140.343C701.391 140.578 701.087 140.908 700.863 141.335C700.639 141.762 700.527 142.247 700.527 142.791C700.527 143.335 700.639 143.82 700.863 144.247C701.087 144.674 701.391 145.01 701.775 145.255C702.159 145.5 702.602 145.623 703.103 145.623Z"
		fill="white" />
	<defs>
		<filter id="filter0_d_46_39062" x="0.296539" y="73.1707" width="664.561" height="664.561"
			filterUnits="userSpaceOnUse" color-interpolation-filters="sRGB">
			<feFlood flood-opacity="0" result="BackgroundImageFix" />
			<feColorMatrix in="SourceAlpha" type="matrix"
				values="0 0 0 0 0 0 0 0 0 0 0 0 0 0 0 0 0 0 127 0" result="hardAlpha" />
			<!-- <feOffset dy="30.0221" />
			<feGaussianBlur stdDeviation="81.0597" /> -->
			<feComposite in2="hardAlpha" operator="out" />
			<feColorMatrix type="matrix" values="0 0 0 0 0 0 0 0 0 0 0 0 0 0 0 0 0 0 1 0" />
			<feBlend mode="normal" in2="BackgroundImageFix" result="effect1_dropShadow_46_39062" />
			<feBlend mode="normal" in="SourceGraphic" in2="effect1_dropShadow_46_39062" result="shape" />
		</filter>
		<filter id="filter1_d_46_39062" x="359.914" y="158.316" width="358.271" height="358.271"
			filterUnits="userSpaceOnUse" color-interpolation-filters="sRGB">
			<feFlood flood-opacity="0" result="BackgroundImageFix" />
			<feColorMatrix in="SourceAlpha" type="matrix"
				values="0 0 0 0 0 0 0 0 0 0 0 0 0 0 0 0 0 0 127 0" result="hardAlpha" />
			<!-- <feOffset dy="30.0221" />
			<feGaussianBlur stdDeviation="81.0597" /> -->
			<feComposite in2="hardAlpha" operator="out" />
			<feColorMatrix type="matrix" values="0 0 0 0 0 0 0 0 0 0 0 0 0 0 0 0 0 0 1 0" />
			<feBlend mode="normal" in2="BackgroundImageFix" result="effect1_dropShadow_46_39062" />
			<feBlend mode="normal" in="SourceGraphic" in2="effect1_dropShadow_46_39062" result="shape" />
		</filter>
		<filter id="filter2_d_46_39062" x="223.785" y="0.186827" width="460.368" height="460.368"
			filterUnits="userSpaceOnUse" color-interpolation-filters="sRGB">
			<feFlood flood-opacity="0" result="BackgroundImageFix" />
			<feColorMatrix in="SourceAlpha" type="matrix"
				values="0 0 0 0 0 0 0 0 0 0 0 0 0 0 0 0 0 0 127 0" result="hardAlpha" />
			<!-- <feOffset dy="30.0221" /> -->
			<!-- <feGaussianBlur stdDeviation="81.0597" /> -->
			<feComposite in2="hardAlpha" operator="out" />
			<feColorMatrix type="matrix" values="0 0 0 0 0 0 0 0 0 0 0 0 0 0 0 0 0 0 1 0" />
			<feBlend mode="normal" in2="BackgroundImageFix" result="effect1_dropShadow_46_39062" />
			<feBlend mode="normal" in="SourceGraphic" in2="effect1_dropShadow_46_39062" result="shape" />
		</filter>
		<radialGradient id="paint0_radial_46_39062" cx="0" cy="0" r="1" gradientUnits="userSpaceOnUse"
			gradientTransform="translate(441.59 545.59) rotate(-122.661) scale(305.583 356.527)">
			<stop />
			<stop offset="1" stop-opacity="0" />
		</radialGradient>
		<radialGradient id="paint1_radial_46_39062" cx="0" cy="0" r="1" gradientUnits="userSpaceOnUse"
			gradientTransform="translate(441.59 545.59) rotate(-122.661) scale(305.583 356.527)">
			<stop />
			<stop offset="1" stop-opacity="0" />
		</radialGradient>
		<radialGradient id="paint2_radial_46_39062" cx="0" cy="0" r="1" gradientUnits="userSpaceOnUse"
			gradientTransform="translate(549.951 324.445) rotate(-122.661) scale(30.5583 35.6527)">
			<stop />
			<stop offset="1" stop-opacity="0" />
		</radialGradient>
		<radialGradient id="paint3_radial_46_39062" cx="0" cy="0" r="1" gradientUnits="userSpaceOnUse"
			gradientTransform="translate(497.574 268.413) rotate(-122.661) scale(122.233 142.611)">
			<stop />
			<stop offset="1" stop-opacity="0" />
		</radialGradient>
		<radialGradient id="paint4_radial_46_39062" cx="0" cy="0" r="1" gradientUnits="userSpaceOnUse"
			gradientTransform="translate(497.574 268.413) rotate(-122.661) scale(122.233 142.611)">
			<stop />
			<stop offset="1" stop-opacity="0" />
		</radialGradient>
	</defs>
</svg>